<mxfile host="app.diagrams.net" modified="2024-02-05T14:29:48.892Z" agent="Mozilla/5.0 (Windows NT 10.0; Win64; x64) AppleWebKit/537.36 (KHTML, like Gecko) Chrome/121.0.0.0 Safari/537.36 Edg/121.0.0.0" etag="w-UKGIQOPub0cKRz5RNJ" version="23.1.1" type="device">
  <diagram name="Stránka-1" id="Y2W6j0xUbFxj7qricqYg">
    <mxGraphModel dx="1121" dy="547" grid="1" gridSize="10" guides="1" tooltips="1" connect="1" arrows="1" fold="1" page="1" pageScale="1" pageWidth="827" pageHeight="1169" math="0" shadow="0">
      <root>
        <mxCell id="0" />
        <mxCell id="1" parent="0" />
        <mxCell id="dDY2U50TDc78OIAvLkaZ-1" value="Faktorial" style="ellipse;whiteSpace=wrap;html=1;aspect=fixed;" vertex="1" parent="1">
          <mxGeometry x="160" width="80" height="80" as="geometry" />
        </mxCell>
        <mxCell id="dDY2U50TDc78OIAvLkaZ-5" value="x = 1" style="whiteSpace=wrap;html=1;" vertex="1" parent="1">
          <mxGeometry x="140" y="180" width="120" height="60" as="geometry" />
        </mxCell>
        <mxCell id="dDY2U50TDc78OIAvLkaZ-10" value="" style="edgeStyle=orthogonalEdgeStyle;rounded=0;orthogonalLoop=1;jettySize=auto;html=1;" edge="1" parent="1" source="dDY2U50TDc78OIAvLkaZ-7" target="dDY2U50TDc78OIAvLkaZ-9">
          <mxGeometry relative="1" as="geometry" />
        </mxCell>
        <mxCell id="dDY2U50TDc78OIAvLkaZ-13" value="" style="edgeStyle=orthogonalEdgeStyle;rounded=0;orthogonalLoop=1;jettySize=auto;html=1;" edge="1" parent="1" source="dDY2U50TDc78OIAvLkaZ-7" target="dDY2U50TDc78OIAvLkaZ-12">
          <mxGeometry relative="1" as="geometry" />
        </mxCell>
        <mxCell id="dDY2U50TDc78OIAvLkaZ-7" value="Pro čísla C od N do 1&amp;nbsp;&amp;nbsp;" style="strokeWidth=2;html=1;shape=mxgraph.flowchart.loop_limit;whiteSpace=wrap;" vertex="1" parent="1">
          <mxGeometry x="150" y="260" width="100" height="60" as="geometry" />
        </mxCell>
        <mxCell id="dDY2U50TDc78OIAvLkaZ-8" style="edgeStyle=orthogonalEdgeStyle;rounded=0;orthogonalLoop=1;jettySize=auto;html=1;entryX=0.5;entryY=0;entryDx=0;entryDy=0;entryPerimeter=0;" edge="1" parent="1" source="dDY2U50TDc78OIAvLkaZ-5" target="dDY2U50TDc78OIAvLkaZ-7">
          <mxGeometry relative="1" as="geometry" />
        </mxCell>
        <mxCell id="dDY2U50TDc78OIAvLkaZ-9" value="&amp;nbsp;x = C * x" style="whiteSpace=wrap;html=1;strokeWidth=2;" vertex="1" parent="1">
          <mxGeometry x="140" y="340" width="120" height="60" as="geometry" />
        </mxCell>
        <mxCell id="dDY2U50TDc78OIAvLkaZ-11" style="edgeStyle=orthogonalEdgeStyle;rounded=0;orthogonalLoop=1;jettySize=auto;html=1;entryX=1;entryY=0.5;entryDx=0;entryDy=0;entryPerimeter=0;" edge="1" parent="1" source="dDY2U50TDc78OIAvLkaZ-9" target="dDY2U50TDc78OIAvLkaZ-7">
          <mxGeometry relative="1" as="geometry">
            <Array as="points">
              <mxPoint x="280" y="370" />
              <mxPoint x="280" y="290" />
            </Array>
          </mxGeometry>
        </mxCell>
        <mxCell id="dDY2U50TDc78OIAvLkaZ-12" value="Výsledek je v X" style="ellipse;whiteSpace=wrap;html=1;strokeWidth=2;" vertex="1" parent="1">
          <mxGeometry x="50" y="250" width="80" height="80" as="geometry" />
        </mxCell>
        <mxCell id="dDY2U50TDc78OIAvLkaZ-14" value="" style="edgeStyle=orthogonalEdgeStyle;rounded=0;orthogonalLoop=1;jettySize=auto;html=1;" edge="1" parent="1" source="dDY2U50TDc78OIAvLkaZ-1" target="dDY2U50TDc78OIAvLkaZ-4">
          <mxGeometry relative="1" as="geometry">
            <mxPoint x="200" y="80" as="sourcePoint" />
            <mxPoint x="200" y="169.9999999999999" as="targetPoint" />
          </mxGeometry>
        </mxCell>
        <mxCell id="dDY2U50TDc78OIAvLkaZ-15" style="edgeStyle=orthogonalEdgeStyle;rounded=0;orthogonalLoop=1;jettySize=auto;html=1;" edge="1" parent="1" source="dDY2U50TDc78OIAvLkaZ-4" target="dDY2U50TDc78OIAvLkaZ-5">
          <mxGeometry relative="1" as="geometry" />
        </mxCell>
        <mxCell id="dDY2U50TDc78OIAvLkaZ-4" value="N je celé číslo&amp;nbsp;" style="shape=parallelogram;perimeter=parallelogramPerimeter;whiteSpace=wrap;html=1;fixedSize=1;" vertex="1" parent="1">
          <mxGeometry x="140" y="100" width="120" height="60" as="geometry" />
        </mxCell>
        <mxCell id="dDY2U50TDc78OIAvLkaZ-16" value="Faktorial rekurzivně" style="ellipse;whiteSpace=wrap;html=1;aspect=fixed;" vertex="1" parent="1">
          <mxGeometry x="450" width="80" height="80" as="geometry" />
        </mxCell>
        <mxCell id="dDY2U50TDc78OIAvLkaZ-17" value="" style="edgeStyle=orthogonalEdgeStyle;rounded=0;orthogonalLoop=1;jettySize=auto;html=1;" edge="1" parent="1" source="dDY2U50TDc78OIAvLkaZ-16" target="dDY2U50TDc78OIAvLkaZ-18">
          <mxGeometry relative="1" as="geometry">
            <mxPoint x="490" y="80" as="sourcePoint" />
            <mxPoint x="490" y="169.9999999999999" as="targetPoint" />
          </mxGeometry>
        </mxCell>
        <mxCell id="dDY2U50TDc78OIAvLkaZ-22" value="" style="edgeStyle=orthogonalEdgeStyle;rounded=0;orthogonalLoop=1;jettySize=auto;html=1;" edge="1" parent="1" source="dDY2U50TDc78OIAvLkaZ-18" target="dDY2U50TDc78OIAvLkaZ-21">
          <mxGeometry relative="1" as="geometry" />
        </mxCell>
        <mxCell id="dDY2U50TDc78OIAvLkaZ-18" value="N je celé číslo&amp;nbsp;" style="shape=parallelogram;perimeter=parallelogramPerimeter;whiteSpace=wrap;html=1;fixedSize=1;" vertex="1" parent="1">
          <mxGeometry x="430" y="100" width="120" height="60" as="geometry" />
        </mxCell>
        <mxCell id="dDY2U50TDc78OIAvLkaZ-23" style="edgeStyle=orthogonalEdgeStyle;rounded=0;orthogonalLoop=1;jettySize=auto;html=1;" edge="1" parent="1" source="dDY2U50TDc78OIAvLkaZ-21" target="dDY2U50TDc78OIAvLkaZ-25">
          <mxGeometry relative="1" as="geometry">
            <mxPoint x="580" y="229.9999999999999" as="targetPoint" />
          </mxGeometry>
        </mxCell>
        <mxCell id="dDY2U50TDc78OIAvLkaZ-24" value="Ano" style="edgeLabel;html=1;align=center;verticalAlign=middle;resizable=0;points=[];" vertex="1" connectable="0" parent="dDY2U50TDc78OIAvLkaZ-23">
          <mxGeometry x="-0.0703" relative="1" as="geometry">
            <mxPoint as="offset" />
          </mxGeometry>
        </mxCell>
        <mxCell id="dDY2U50TDc78OIAvLkaZ-26" style="edgeStyle=orthogonalEdgeStyle;rounded=0;orthogonalLoop=1;jettySize=auto;html=1;" edge="1" parent="1" source="dDY2U50TDc78OIAvLkaZ-21" target="dDY2U50TDc78OIAvLkaZ-29">
          <mxGeometry relative="1" as="geometry">
            <mxPoint x="435.99999125690647" y="228.0344827586207" as="targetPoint" />
          </mxGeometry>
        </mxCell>
        <mxCell id="dDY2U50TDc78OIAvLkaZ-27" value="Ne" style="edgeLabel;html=1;align=center;verticalAlign=middle;resizable=0;points=[];" vertex="1" connectable="0" parent="dDY2U50TDc78OIAvLkaZ-26">
          <mxGeometry x="-0.3204" y="2" relative="1" as="geometry">
            <mxPoint as="offset" />
          </mxGeometry>
        </mxCell>
        <mxCell id="dDY2U50TDc78OIAvLkaZ-21" value="N = 0 nebo 1" style="rhombus;whiteSpace=wrap;html=1;" vertex="1" parent="1">
          <mxGeometry x="450" y="190" width="80" height="80" as="geometry" />
        </mxCell>
        <mxCell id="dDY2U50TDc78OIAvLkaZ-25" value="Výsledek&amp;nbsp; je 1" style="ellipse;whiteSpace=wrap;html=1;aspect=fixed;" vertex="1" parent="1">
          <mxGeometry x="570" y="189.9999999999999" width="80" height="80" as="geometry" />
        </mxCell>
        <mxCell id="dDY2U50TDc78OIAvLkaZ-29" value="Výsledek je:&lt;br style=&quot;border-color: var(--border-color);&quot;&gt;N * Faktoriál_rekurzivně (N-1)" style="ellipse;whiteSpace=wrap;html=1;" vertex="1" parent="1">
          <mxGeometry x="400" y="310" width="180" height="60" as="geometry" />
        </mxCell>
      </root>
    </mxGraphModel>
  </diagram>
</mxfile>
